<svg id="Calque_1" data-name="Calque 1" xmlns="http://www.w3.org/2000/svg" viewBox="0 0 595.28 260.41"><defs><style>.cls-1{fill:#fff;}.cls-2{fill:#e84250;}.cls-3{fill:none;}</style></defs><path class="cls-1" d="M243.51,182.66h3.07V208h12.1v2.73H243.51Z"/><path class="cls-1" d="M283.38,201.16c0,6-4,10.18-10.18,10.18S263,207.15,263,201.16v-18.5h3.08v18.79a7.11,7.11,0,0,0,14.22,0V182.66h3.07Z"/><path class="cls-1" d="M292,210.74h-3.37l8.65-14-8.39-14h3.37l6.7,11.91h.15l6.81-11.91h3.37l-8.42,13.89,8.65,14.19h-3.37l-7-11.94H299Z"/><path class="cls-1" d="M315,182.66H330.8v2.69H318v9.81h12v2.7H318V208H331v2.73H315Z"/><path class="cls-1" d="M350.12,203.63l-8.91-15.8h-.15v22.91H338V182.66h3.85L351.5,200h.15l9.59-17.33h3.7v28.08h-3.06V187.83h-.15l-8.88,15.8Z"/><path class="cls-1" d="M383.58,210.74H373.32V182.66h9.74c4.75,0,8,3.07,8,7.23a6.56,6.56,0,0,1-4.68,6.36,7,7,0,0,1,5.39,7.08C391.74,207.41,388.45,210.74,383.58,210.74Zm-7.19-15.58h6.55a4.91,4.91,0,1,0-.22-9.81h-6.33Zm12.21,7.75a5.06,5.06,0,0,0-5.13-5.09h-7.08V208h6.85A5.06,5.06,0,0,0,388.6,202.91Z"/><path class="cls-1" d="M397.05,196.7c0-8.39,6-14.64,14.27-14.64s14.26,6.25,14.26,14.64-6.06,14.64-14.26,14.64S397.05,205.09,397.05,196.7Zm25.39,0c0-6.81-4.64-11.87-11.12-11.87s-11.12,5.06-11.12,11.87,4.64,11.83,11.12,11.83S422.44,203.51,422.44,196.7Z"/><path class="cls-1" d="M452.46,201.16c0,6-4,10.18-10.19,10.18s-10.18-4.19-10.18-10.18v-18.5h3.07v18.79a7.11,7.11,0,0,0,14.22,0V182.66h3.08Z"/><path class="cls-1" d="M469.3,199.17h-5.62v11.57h-3.07V182.66h10c5.39,0,9.1,3.59,9.1,8.24a8.13,8.13,0,0,1-7.11,8.08l7.3,11.76H476.3Zm7.3-8.24c0-3.1-2.36-5.58-6.26-5.58h-6.66v11.13h6.66C474.24,196.48,476.6,193.89,476.6,190.93Z"/><path class="cls-1" d="M497.82,196.51h14.83a4.56,4.56,0,0,1,.11,1.28c0,8-5.32,13.55-13.63,13.55s-14.3-6.25-14.3-14.64,6.06-14.64,14.26-14.64a13.49,13.49,0,0,1,11.38,5.73l-2.09,1.72a11.17,11.17,0,0,0-9.29-4.72c-6.44,0-11.12,5.1-11.12,11.91s4.57,11.83,11.16,11.83c6,0,9.92-3.67,10.44-9.28H497.82Z"/><rect class="cls-2" x="171.06" y="134.1" width="18.56" height="18.56"/><polygon class="cls-3" points="473.57 150.24 473.62 150.7 473.62 150.7 473.57 150.24"/><path class="cls-1" d="M231.85,49.81H220.1L209.54,152.67h3.67l3.22-32.48H227l2.87,32.48h11.76Zm-5,67.74H216.55L222,62v0l4.85,55.54Z"/><path class="cls-1" d="M134,49.07c-9.7,0-17.64,6.76-17.64,15v74.35c0,8.23,7.94,15,17.64,15s17.63-6.76,17.63-15v-16.6H139.83v23.07a5.88,5.88,0,0,1-11.76,0V57.6a5.88,5.88,0,0,1,11.76,0V80.67h11.75V64.06C151.58,55.83,143.64,49.07,134,49.07Z"/><path class="cls-1" d="M367.2,49.07c-9.7,0-17.63,6.76-17.63,15v74.35c0,8.23,7.93,15,17.63,15s17.63-6.76,17.63-15V64.06C384.83,55.83,376.9,49.07,367.2,49.07Zm5.88,95.81a5.88,5.88,0,0,1-11.76,0V57.6a5.88,5.88,0,1,1,11.76,0Z"/><path class="cls-1" d="M417.17,49.07c-9.7,0-17.64,6.76-17.64,15v74.35c0,8.23,7.94,15,17.64,15s17.63-6.76,17.63-15v-16.6H423v23.07a5.88,5.88,0,1,1-11.75,0V57.6a5.88,5.88,0,1,1,11.75,0V80.67H434.8V64.06C434.8,55.83,426.86,49.07,417.17,49.07Z"/><path class="cls-1" d="M470.81,49.81H459.06L448.49,152.67h3.68l3.21-32.48H466l2.88,32.48h11.75Zm-15.28,67.74L461,62l4.86,55.54Z"/><path class="cls-1" d="M274.46,49.81h-16.9V152.67h16.9c9.7,0,17.63-6.76,17.63-15V64.8C292.09,56.57,284.16,49.81,274.46,49.81Zm5.88,94.33a5.9,5.9,0,0,1-5.88,5.88h-5.15V52.45h5.15a5.9,5.9,0,0,1,5.88,5.88Z"/><polygon class="cls-1" points="332.9 49.81 332.9 49.82 324.13 140.47 316.24 49.82 316.24 49.81 304.48 49.81 304.48 49.82 314.29 152.67 326.04 152.67 336.6 49.82 336.6 49.81 332.9 49.81"/><polygon class="cls-1" points="96.46 49.81 96.46 121.22 80.44 49.81 69.28 49.81 69.28 152.67 72.95 152.67 72.95 72.58 90.73 152.67 100.14 152.67 100.14 49.81 96.46 49.81"/><polygon class="cls-1" points="526 49.81 485.75 49.81 485.75 52.44 500 52.44 500 152.66 511.76 152.66 511.76 52.44 526 52.44 526 49.81"/></svg>